# xmcd CD database file
#
# Track frame offsets:
#	150
#	27596
#	49924
#	75149
#	96996
#	113224
#	144033
#	165568
#	187380
#	206856
#	234581
#	259796
#	279839
#
# Disc length: 4168 seconds
#
# Revision: 0
# Processed by: cddbd v1.5.2PL0 Copyright (c) Steve Scherf et al.
# Submitted via: CDex 1.70beta2
#
DISCID=b210460d
DTITLE=Carl Cox - Global
DYEAR=2006
DGENRE=Dance and Electronic
TTITLE0=Eysser - Mono - Logs (Jussi Pekka Has A Big Dick Mix)
TTITLE1=T.G - Little Flies 
TTITLE2=Paradise Soul - Passive Aggressive 
TTITLE3=B Pole - The Long Con 
TTITLE4=Pott Art - Wet Mango (Mirko Eysser Mix)
TTITLE5=Carl Cox - That's The Bass (Tim Deluxe Mix) 
TTITLE6=Pedro Gonzales - Heaven (Minimal 
TTITLE7=Chris Lake - Release (Luke Dzierzek Mix)
TTITLE8=Eyerer and Chopstick - Electric (Williams Acidic Circuits Mix) 
TTITLE9=Sebastian Leger - Bad Clock 04 
TTITLE10=Kevin Rocks - Voltage Controlled (Klaus Schneider Rmx) 
TTITLE11=Acquaviva and Luetzenkirchen - No Fear (Trick and Kubic Remix)
TTITLE12=Milton Jackson - M 
EXTD=YEAR: 2006
EXTT0=
EXTT1=
EXTT2=
EXTT3=
EXTT4=
EXTT5=
EXTT6=
EXTT7=
EXTT8=
EXTT9=
EXTT10=
EXTT11=
EXTT12=
PLAYORDER=
